<svg width="43" height="38" fill="none" xmlns="http://www.w3.org/2000/svg"><path d="M.01 27.302c0 5.614 4.55 10.165 10.164 10.165s10.165-4.55 10.165-10.165c0-5.614-4.551-10.165-10.165-10.165-1.154 0-2.258.202-3.292.556C9.169 4.573 19.4-3.887 9.916 3.076-.6 10.798-.002 26.992.01 27.288v.014zm22.362 0c0 5.615 4.55 10.166 10.165 10.166 5.614 0 10.165-4.551 10.165-10.166 0-5.614-4.551-10.164-10.166-10.164-1.153 0-2.258.2-3.292.555 2.288-13.12 12.519-21.58 3.035-14.617-10.516 7.722-9.919 23.916-9.907 24.213v.013z" fill="#ECECEC"/></svg>