<svg width="120" height="94" fill="none" xmlns="http://www.w3.org/2000/svg"><path d="M67.368 53.233c0-28.805 23.165-52.074 51.73-52.476V18.1c-13.664 1.157-25.326 9.665-30.907 21.581l-.501 1.07h18.927c6.964 0 12.631 5.54 12.631 12.482V79.85c0 6.953-5.678 12.631-12.631 12.631H80c-6.953 0-12.632-5.678-12.632-12.631V53.233zm-66.616 0C.752 24.428 23.916 1.16 52.482.757V18.1c-13.665 1.157-25.326 9.665-30.907 21.581l-.502 1.07H40c6.953 0 12.632 5.68 12.632 12.633V80c0 6.797-5.673 12.481-12.632 12.481H13.383C6.43 92.481.752 86.803.752 79.85V53.233z" stroke="#9CA3AF" stroke-width="1.504"/></svg>