<svg width="179" height="36" fill="none" xmlns="http://www.w3.org/2000/svg"><path d="M11.34 34.592H4.595V17.777H0v-5.474h4.595V8.408C4.595 3.792 6.627.48 13.353.48c1.423 0 3.657.287 3.657.287V5.85h-2.346c-2.39 0-3.324.727-3.324 2.737v3.715h5.58l-.497 5.474H11.34v16.815zm15.476-22.726c-.098 0-.2.003-.3.006-6.254 0-9.115 4.704-9.115 11.382 0 8.413 3.712 11.78 9.164 11.78 3.12 0 5.17-1.313 6.416-3.764v3.324h6.415V12.305h-6.415v3.428c-1.018-2.205-3.125-3.841-6.165-3.867zm1.631 5.266c2.627 0 4.204 1.832 4.204 4.95l.006 3.182c0 2.1-1.302 4.558-4.21 4.558-4.47 0-4.35-4.826-4.35-6.433 0-5.407 2.381-6.257 4.35-6.257zm13.54 6.319c0-2.709-.13-11.571 11.417-11.571 4.634 0 6.57 1.474 6.57 1.474l-1.556 4.824s-1.933-1.064-4.451-1.064c-3.226 0-5.284 1.87-5.284 5.16l.003 2.36c0 3.16 1.986 5.271 5.288 5.271 2.294 0 4.409-1.074 4.409-1.074l1.551 4.724s-1.77 1.483-6.498 1.483c-10.994 0-11.449-7.951-11.449-11.587zm55.602-11.58c6.255 0 9.161 4.705 9.161 11.383 0 8.413-3.712 11.78-9.164 11.78-3.12 0-5.426-1.313-6.672-3.764v3.324l-6.335-.003V1.16l6.726-.587v14.859c.97-2.6 4.16-3.56 6.284-3.56zm-1.885 5.261c-2.627 0-4.4 1.832-4.4 4.95l-.005 3.182c-.004 2.1 1.227 4.558 4.405 4.558 4.469 0 4.35-4.826 4.35-6.433 0-5.407-2.381-6.257-4.35-6.257zm-24.06-5.242c-7.094 0-10.84 3.868-10.84 10.741v1.277c0 8.92 5.26 11.218 11.53 11.218 6.094 0 8.853-1.705 8.853-1.705l-1.259-4.54s-3.245 1.381-6.788 1.381c-3.673 0-5.252-.936-5.657-4.466h14.242v-3.642c0-7.455-4.203-10.264-10.082-10.264zm.17 4.546c2.456 0 4.047 1.505 3.96 4.997h-8.279c.144-3.675 1.86-4.997 4.32-4.997zm48.347-4.577c-7.284 0-11.12 4.106-11.12 11.462 0 10.094 6.611 11.719 11.132 11.719 6.619 0 11.023-3.563 11.023-11.627 0-8.393-4.952-11.554-11.035-11.554zm-.091 5.292c3.203 0 4.472 2.397 4.472 5.126v2.346c0 3.306-1.776 5.218-4.485 5.218-2.533 0-4.313-1.789-4.313-5.218v-2.346c0-3.658 2.118-5.127 4.326-5.127zm24.524-5.292c-7.284 0-11.119 4.106-11.119 11.462 0 10.094 6.61 11.719 11.132 11.719 6.618 0 11.022-3.563 11.022-11.627 0-8.393-4.952-11.554-11.035-11.554zm-.091 5.292c3.203 0 4.472 2.397 4.472 5.126v2.346c0 3.306-1.776 5.218-4.484 5.218-2.534 0-4.314-1.789-4.314-5.218v-2.346c0-3.658 2.119-5.127 4.326-5.127zm13.667 17.44V1.16l6.746-.587v22.409l6.692-10.678h7.123l-6.981 11.06L179 34.591h-7.144l-6.94-10.904v10.904h-6.746z" fill="#fff"/></svg>