<svg width="140" height="46" fill="none" xmlns="http://www.w3.org/2000/svg"><path d="M17.902.481h1.233c4.28.094 8.49 1.824 11.514 4.888-1.117 1.146-2.256 2.245-3.35 3.391-1.698-1.544-3.745-2.736-5.978-3.157-3.303-.702-6.862-.07-9.63 1.824-3.023 1.988-5.07 5.356-5.512 8.957-.489 3.555.511 7.297 2.814 10.057 2.21 2.69 5.583 4.373 9.072 4.49 3.256.187 6.652-.819 9.025-3.11 1.86-1.614 2.721-4.07 3-6.455-3.86 0-7.722.023-11.583 0v-4.818h16.259c.837 5.168-.372 10.992-4.28 14.687-2.605 2.62-6.21 4.163-9.886 4.467-3.559.35-7.234-.328-10.397-2.058-3.792-2.035-6.816-5.473-8.304-9.519-1.396-3.718-1.42-7.928-.117-11.67C2.97 9.041 5.248 6.024 8.18 3.92 10.994 1.837 14.413.69 17.902.48zm93.341 1.121h5.045v33.623c-1.674 0-3.371.024-5.045-.023.024-11.184 0-22.392 0-33.6zM45.95 13.021c3.114-.59 6.487.071 9.058 1.94 2.335 1.654 3.963 4.255 4.458 7.093.637 3.286-.165 6.88-2.288 9.481-2.288 2.909-6.038 4.47-9.695 4.233-3.35-.19-6.605-1.868-8.586-4.61-2.241-3.027-2.784-7.189-1.557-10.736 1.227-3.807 4.694-6.715 8.61-7.4zm.708 4.493a6.34 6.34 0 00-3.303 2.104c-2.288 2.743-2.146 7.212.378 9.766 1.439 1.466 3.609 2.151 5.614 1.75 1.863-.332 3.49-1.585 4.387-3.24 1.557-2.814 1.109-6.691-1.273-8.89-1.534-1.42-3.775-2.01-5.803-1.49zm23.952-4.491c3.565-.686 7.46.308 10.128 2.815 4.343 3.903 4.815 11.213 1.11 15.707-2.243 2.839-5.879 4.4-9.467 4.234-3.423-.094-6.799-1.797-8.829-4.612-2.29-3.1-2.785-7.357-1.487-10.976 1.298-3.69 4.698-6.506 8.546-7.168zm.709 4.495a6.454 6.454 0 00-3.305 2.081c-2.266 2.697-2.172 7.097.26 9.675 1.44 1.538 3.682 2.295 5.76 1.869 1.84-.355 3.493-1.585 4.39-3.24 1.535-2.84 1.086-6.719-1.322-8.919-1.534-1.42-3.777-1.987-5.783-1.466zm20.203-3.133c2.7-1.691 6.29-2.161 9.2-.705.916.4 1.667 1.081 2.394 1.763.024-.635 0-1.293.024-1.95 1.572.023 3.144 0 4.74.023v20.723c-.023 3.125-.821 6.438-3.074 8.717-2.464 2.514-6.243 3.29-9.646 2.772-3.638-.54-6.806-3.195-8.214-6.555 1.408-.681 2.887-1.222 4.342-1.856.821 1.927 2.487 3.571 4.576 3.947 2.089.376 4.506-.14 5.867-1.88 1.456-1.785 1.456-4.229 1.385-6.414-1.079 1.058-2.323 1.997-3.825 2.35-3.263.916-6.853-.212-9.364-2.42-2.535-2.209-4.037-5.616-3.896-9 .07-3.829 2.23-7.518 5.491-9.515zm4.858 3.008c-1.431.235-2.769 1.033-3.684 2.138-2.206 2.631-2.206 6.837.023 9.422 1.268 1.527 3.31 2.373 5.28 2.161 1.855-.188 3.568-1.363 4.483-2.984 1.549-2.749 1.291-6.485-.797-8.881-1.291-1.48-3.357-2.209-5.305-1.856zm26.217-1.778c2.775-2.648 7.054-3.546 10.616-2.151 3.377 1.3 5.528 4.586 6.615 7.967-5.019 2.127-10.015 4.231-15.034 6.36.694 1.347 1.758 2.576 3.192 3.072 2.012.733 4.417.473 6.106-.898.671-.52 1.202-1.206 1.711-1.868 1.272.875 2.544 1.726 3.817 2.6-1.804 2.767-4.834 4.705-8.096 5.013-3.608.449-7.447-.97-9.783-3.854-3.84-4.539-3.469-12.15.856-16.24zm2.474 4.374c-.786 1.158-1.11 2.577-1.087 3.971 3.354-1.418 6.708-2.837 10.062-4.279-.556-1.323-1.897-2.127-3.262-2.34-2.197-.402-4.487.804-5.713 2.648z" fill="#fff"/></svg>