<svg width="162" height="43" fill="none" xmlns="http://www.w3.org/2000/svg"><path d="M0 35.801h17.863v-5.827H6.465V7.744H0V35.8zm26.906 0V16.476h-6.465V35.8h6.465zm-3.232-21.963c2.254 0 3.658-1.484 3.658-3.34-.042-1.896-1.404-3.338-3.615-3.338-2.211 0-3.657 1.443-3.657 3.338 0 1.856 1.403 3.34 3.572 3.34h.042zM29.908 35.8h6.464V25.009c0-.578.042-1.156.213-1.567.467-1.154 1.53-2.35 3.317-2.35 2.34 0 3.276 1.773 3.276 4.37V35.8h6.464V24.72c0-5.936-3.19-8.698-7.444-8.698-3.487 0-5.018 1.937-5.87 3.256h.044v-2.802h-6.464c.085 1.813 0 19.325 0 19.325zM58.762 7.744h-6.465V35.8h6.465v-6.266l1.616-2.02 5.061 8.286h7.953l-8.505-11.996 7.442-8.162h-7.782s-5.316 7.302-5.785 8.168V7.744z" fill="#fff"/><path d="M90.545 28.143a15.56 15.56 0 00.216-2.537c0-5.018-2.588-10.113-9.402-10.113-7.288 0-10.652 5.674-10.652 10.82 0 6.365 4.097 10.34 11.256 10.34 2.846 0 5.476-.413 7.633-1.283l-.862-4.262c-1.77.578-3.58.867-5.822.867-3.062 0-5.735-1.238-5.951-3.874l13.584.04v.002zm-13.627-4.366c.172-1.656 1.294-4.1 4.097-4.1 2.975 0 3.666 2.609 3.666 4.1h-7.763zM106.94 8.056v9.757h-.087c-.949-1.366-2.932-2.277-5.562-2.277-5.046 0-9.487 3.975-9.445 10.766 0 6.294 4.011 10.394 9.013 10.394 2.717 0 5.304-1.16 6.599-3.396h.128l.26 2.94h5.821a106.257 106.257 0 01-.173-6.046V8.055h-6.555.001zm0 19.199c0 .496-.043.994-.13 1.406-.387 1.782-1.94 3.023-3.837 3.023-2.717 0-4.486-2.153-4.486-5.548 0-3.188 1.511-5.756 4.529-5.756 2.027 0 3.45 1.366 3.838 3.064.086.373.086.788.086 1.16v2.65z" fill="#fff"/><path fill-rule="evenodd" clip-rule="evenodd" d="M123.043 0c-1.717 0-3.109 1.379-3.109 3.078v36.807c0 1.699 1.392 3.076 3.109 3.076h35.848c1.717 0 3.109-1.377 3.109-3.077V3.078c0-1.7-1.392-3.078-3.109-3.078h-35.848zm9.169 16.476V35.8h-6.524V16.476h6.524zm.43-5.977c0 1.855-1.416 3.339-3.691 3.339h-.042c-2.19 0-3.605-1.484-3.605-3.339 0-1.896 1.458-3.339 3.691-3.339 2.231 0 3.604 1.443 3.647 3.34zm9.703 25.301h-6.523c.001-.113.086-17.517.001-19.324h6.523v2.736c.867-1.317 2.419-3.19 5.879-3.19 4.292 0 7.51 2.763 7.51 8.698V35.8h-6.523V25.463c0-2.598-.945-4.37-3.305-4.37-1.802 0-2.875 1.195-3.347 2.35-.172.412-.215.99-.215 1.567V35.8zm-6.523.001z" fill="#fff"/></svg>