<svg width="1892" height="591" fill="none" xmlns="http://www.w3.org/2000/svg"><path d="M1406.69 164.62c-1.27-.202-2.21-1.194-2.36-2.505-.16-1.311.5-2.677 1.66-3.448.66-.436 1.32-.796 1.91-1.114 1.75-.951 2.09-1.233 2.26-1.891.17-.659 0-1.021-1.15-2.431-1.29-1.589-3.24-3.99-2.22-7.946 1.01-3.955 4-5.574 5.98-6.646 1.75-.951 2.09-1.234 2.26-1.892.17-.658 0-1.022-1.15-2.435-1.29-1.589-3.24-3.991-2.23-7.946 1.02-3.955 4.01-5.576 5.99-6.648.4-.219.78-.426 1.12-.632 1.59-.985 3.52-.545 4.31.982.79 1.528.14 3.565-1.45 4.55-.51.317-1 .582-1.48.841-1.75.951-2.09 1.233-2.26 1.895-.17.661 0 1.022 1.14 2.435 1.3 1.589 3.25 3.991 2.23 7.946-1.02 3.955-4 5.574-5.98 6.647-1.75.951-2.09 1.234-2.26 1.892-.17.657 0 1.021 1.15 2.431 1.29 1.588 3.24 3.99 2.22 7.944-1.01 3.955-4 5.575-5.98 6.648-.49.267-.96.52-1.34.771-.72.482-1.57.679-2.37.552z" fill="#07DFE0"/><path d="M1427.6 445.923c-.69-1.461-.51-3.052.47-4.086.99-1.035 2.59-1.33 4.13-.757l8.54 3.18 3.67-7.069c.82-1.563 2.75-2.179 4.64-1.477l8.55 3.18 3.67-7.069c.82-1.563 2.75-2.18 4.64-1.477l11.79 4.387c1.43.53 2.57 1.72 2.99 3.123.43 1.402.08 2.803-.92 3.676-1 .872-2.49 1.083-3.92.553l-8.54-3.178-3.68 7.07c-.82 1.563-2.75 2.18-4.64 1.477l-8.55-3.179-3.67 7.068c-.81 1.563-2.75 2.18-4.64 1.477l-11.79-4.389a5.019 5.019 0 01-2.74-2.51z" fill="#FF5858"/><path d="M1481.8 282.947c-1.88-.561-2.71-2.558-1.84-4.477l11.41-25.212c.87-1.933 3.13-3.06 5.04-2.516l24.93 7.098c1.4.398 2.28 1.611 2.22 3.072-.05 1.461-1.03 2.883-2.47 3.603l-36.34 18.115c-.96.478-2.02.592-2.95.317zm14.91-24.215l-6 13.256 19.11-9.524-13.11-3.732z" fill="#5B3DD1"/><path d="M384.146 430.564c-1.177 1.03-2.924 1.375-4.49.886-1.566-.488-2.672-1.724-2.842-3.174l-.94-8.051-9.185-.826c-2.032-.183-3.638-1.591-3.847-3.373l-.942-8.054-9.186-.827c-2.032-.182-3.638-1.591-3.847-3.373l-1.301-11.114c-.157-1.343.515-2.657 1.762-3.448 1.248-.79 2.882-.937 4.286-.385 1.405.552 2.367 1.719 2.525 3.062l.946 8.057 9.189.83c2.032.183 3.638 1.591 3.847 3.372l.942 8.054 9.185.826c2.032.183 3.639 1.591 3.847 3.373l1.297 11.111c.13 1.131-.327 2.253-1.246 3.054z" fill="#9C5CFF"/><path d="M437.738 294.097c-.77.774-1.842 1.262-2.982 1.356-1.14.094-2.254-.215-3.096-.857-4.559-3.478-11.635-2.897-15.803 1.298-4.168 4.194-3.851 10.413.708 13.89 1.754 1.338 1.876 3.729.273 5.343-1.604 1.613-4.325 1.836-6.078.499-8.067-6.152-8.628-17.155-1.253-24.576 7.374-7.42 19.892-8.448 27.959-2.296.842.642 1.344 1.566 1.395 2.568.051 1.002-.353 2-1.123 2.775z" fill="#FFCD45"/><path d="M337.174 173.57a2.797 2.797 0 01-1.932-1.463c-.394-.762-.456-1.696-.172-2.598l7.704-24.468c.591-1.877 2.491-3.103 4.244-2.738 1.753.365 2.695 2.182 2.104 4.059l-7.704 24.468a4.127 4.127 0 01-1.686 2.211c-.796.514-1.716.704-2.558.529z" fill="#3798FA"/><path d="M1618.11 462c13.58 0 24.59-10.998 24.59-24.565 0-13.567-11.01-24.565-24.59-24.565s-24.59 10.998-24.59 24.565c0 13.567 11.01 24.565 24.59 24.565z" fill="#FFF7F1"/><path d="M1656.15 407.14l-17.73-14.576a10.645 10.645 0 00-6.83-2.382h-112.86c-4.7 0-9.21-1.866-12.54-5.188a17.718 17.718 0 01-5.19-12.523v-63.76c0-4.697 1.87-9.202 5.19-12.524a17.76 17.76 0 0112.54-5.187h123.51c4.7 0 9.21 1.866 12.54 5.187a17.68 17.68 0 015.19 12.524v96.525c0 .443-.12.878-.35 1.255-.24.377-.57.681-.97.879-.39.198-.84.281-1.28.24-.44-.04-.86-.203-1.22-.47z" fill="#fff"/><path d="M1577.43 312.058h-55.35a3.508 3.508 0 00-3.51 3.507v.009a3.507 3.507 0 003.51 3.507h55.35c1.94 0 3.51-1.57 3.51-3.507v-.009a3.508 3.508 0 00-3.51-3.507zm33.97 0h-21.97a3.508 3.508 0 00-3.51 3.507v.009a3.507 3.507 0 003.51 3.507h21.97c1.94 0 3.51-1.57 3.51-3.507v-.009a3.508 3.508 0 00-3.51-3.507zm25.47 0h-13.77a3.508 3.508 0 00-3.51 3.507v.009a3.507 3.507 0 003.51 3.507h13.77c1.94 0 3.51-1.57 3.51-3.507v-.009a3.508 3.508 0 00-3.51-3.507z" fill="#FFB6CB"/><path d="M1594.11 328.441h-72.03c-1.94 0-3.51 1.57-3.51 3.507v.009a3.507 3.507 0 003.51 3.507h72.03c1.94 0 3.51-1.57 3.51-3.507v-.009a3.507 3.507 0 00-3.51-3.507zm42.76 0h-29.58c-1.94 0-3.51 1.57-3.51 3.507v.009a3.507 3.507 0 003.51 3.507h29.58c1.94 0 3.51-1.57 3.51-3.507v-.009a3.507 3.507 0 00-3.51-3.507z" fill="#E5EAF6"/><path d="M1577.23 351.837h59.64c1.94 0 3.51-1.57 3.51-3.506v-.009a3.507 3.507 0 00-3.51-3.507h-59.64c-1.94 0-3.51 1.57-3.51 3.507v.009a3.507 3.507 0 003.51 3.506zm-32.03 0h20.02c1.94 0 3.51-1.57 3.51-3.506v-.009a3.507 3.507 0 00-3.51-3.507h-20.02c-1.93 0-3.51 1.57-3.51 3.507v.009a3.514 3.514 0 003.51 3.506zm-23.13 0h11.43c1.94 0 3.51-1.57 3.51-3.506v-.009a3.507 3.507 0 00-3.51-3.507h-11.43c-1.93 0-3.51 1.57-3.51 3.507v.009a3.514 3.514 0 003.51 3.506z" fill="#6AD5E1"/><path d="M1568.45 361.198h-46.37c-1.94 0-3.51 1.57-3.51 3.506v.009a3.507 3.507 0 003.51 3.507h46.37c1.94 0 3.51-1.57 3.51-3.507v-.009a3.507 3.507 0 00-3.51-3.506zm38.26 0h-26.26c-1.94 0-3.51 1.57-3.51 3.506v.009a3.507 3.507 0 003.51 3.507h26.26c1.94 0 3.51-1.57 3.51-3.507v-.009a3.507 3.507 0 00-3.51-3.506zm30.16 0h-18.45c-1.94 0-3.51 1.57-3.51 3.506v.009a3.507 3.507 0 003.51 3.507h18.45c1.94 0 3.51-1.57 3.51-3.507v-.009a3.507 3.507 0 00-3.51-3.506z" fill="#E5EAF6"/><path d="M1618.11 424.488a12.95 12.95 0 0111.97 7.992c.99 2.366 1.24 4.969.74 7.481a12.889 12.889 0 01-3.55 6.628 12.955 12.955 0 01-14.12 2.807 12.989 12.989 0 01-5.82-4.768 12.97 12.97 0 01-2.18-7.193c-.01-1.701.33-3.386.98-4.958.65-1.571 1.6-3 2.81-4.202a12.844 12.844 0 014.21-2.806c1.57-.65 3.26-.983 4.96-.981zm0-1.408c-2.84 0-5.62.842-7.99 2.419a14.36 14.36 0 00-6.11 14.736 14.396 14.396 0 003.94 7.35 14.388 14.388 0 0015.66 3.112 14.413 14.413 0 006.45-5.287 14.335 14.335 0 00-1.79-18.12 14.417 14.417 0 00-10.16-4.21z" fill="#FF92AF"/><path d="M1613.21 431.803a.709.709 0 01.7.699.71.71 0 01-.7.7.703.703 0 01-.5-.205.7.7 0 01-.2-.495c0-.185.07-.363.2-.494a.699.699 0 01.5-.205zm0-1.4c-.42 0-.83.124-1.17.354-.35.231-.62.559-.78.942-.15.384-.2.806-.11 1.213a2.088 2.088 0 001.65 1.649 2.092 2.092 0 002.15-.893c.23-.345.36-.751.36-1.166a2.123 2.123 0 00-.63-1.464 2.097 2.097 0 00-1.47-.608v-.027zm-3.58 7.722a.69.69 0 00-.51.3.589.589 0 00-.11.282.626.626 0 00.01.304c.99 3.489 4.2 7.191 9.09 7.164 4.88-.026 8.11-3.675 9.09-7.164a.84.84 0 00.02-.274.626.626 0 00-.09-.261.565.565 0 00-.18-.208.641.641 0 00-.24-.125.724.724 0 00-.54.064.747.747 0 00-.21.179.973.973 0 00-.12.244c-.83 2.976-3.55 6.199-7.73 6.146-4.19-.053-6.9-3.17-7.73-6.146a.704.704 0 00-.75-.513v.008zm13.38-6.322a.709.709 0 00-.7.699.71.71 0 00.7.7c.19 0 .37-.074.5-.205a.7.7 0 00.2-.495.699.699 0 00-.2-.494.699.699 0 00-.5-.205zm0-1.4c.42 0 .82.124 1.17.354a2.1 2.1 0 01-.76 3.804c-.41.081-.83.039-1.21-.12a2.137 2.137 0 01-.95-.773 2.1 2.1 0 01-.35-1.166c.01-.551.24-1.077.63-1.464.39-.388.92-.606 1.47-.608v-.027z" fill="#FF92AF"/><path d="M317.076 215H206.924c-8.795 0-15.924 7.101-15.924 15.86v111.28c0 8.759 7.129 15.86 15.924 15.86h110.152c8.795 0 15.924-7.101 15.924-15.86V230.86c0-8.759-7.129-15.86-15.924-15.86z" fill="#fff"/><path d="M292.745 326.653h-61.498a3.147 3.147 0 00-3.153 3.14v.008a3.146 3.146 0 003.153 3.14h61.498a3.146 3.146 0 003.153-3.14v-.008a3.147 3.147 0 00-3.153-3.14z" fill="#F3F5FB"/><path d="M283.063 295.195h-42.134a3.17 3.17 0 00-3.177 3.164v2.577a3.17 3.17 0 003.177 3.164h42.134a3.17 3.17 0 003.177-3.164v-2.577a3.171 3.171 0 00-3.177-3.164z" fill="#E5EAF6"/><path d="M299.115 314.108h-74.237a3.147 3.147 0 00-3.153 3.14v.008a3.146 3.146 0 003.153 3.14h74.237a3.145 3.145 0 003.152-3.14v-.008a3.146 3.146 0 00-3.152-3.14z" fill="#F3F5FB"/><path d="M261.996 276.869c12.198 0 22.086-9.848 22.086-21.997s-9.888-21.998-22.086-21.998c-12.198 0-22.086 9.849-22.086 21.998 0 12.149 9.888 21.997 22.086 21.997z" fill="#DCF4F7"/><path d="M269.544 268.63l-1.37-4.163a45.213 45.213 0 00-1.011-7.343c0-.793-.103-2.99-.207-3.64a.413.413 0 000-.111c.589-1.895 2.158-6.495 2.285-6.653.128-.159-.095-.635-.47-.635a4.198 4.198 0 00-2.309 1.404c.168-3.418.566-6.447.566-6.606 0-.158-.088-.713-.398-.713a5.153 5.153 0 00-2.644 2.585l-.947-3.418c0-.19-.143-.46-.358-.46-1.457 0-1.712 2.752-1.712 3.323 0 .261.382 2.442.796 4.758l.064.333.143.793.255 1.395.207.976c.095.491.183.935.263 1.308v.143a24.306 24.306 0 00-3.655-2.284c-.358 0-6.688 3.172-7.635 4.361-.192 0-.876.222-.876.452s3.296 6.106 3.909 6.662c.613.555 4.506 3.774 4.506 3.774.168.714 1.434 4.758 1.402 5.456h9.554l-.358-1.697zm-3.082-21.117c0 .483-.047 2.379-.063 3.33-.016-1.126.016-2.26.063-3.33zm-4.554 9.254c0 .127-3.431 2.633-3.981 2.633-.549 0-3.328-4.227-4.697-4.877 1.337.293 5.056-1.586 5.215-1.586.159 0 2.97 1.982 3.105 2.109.197.555.318 1.134.358 1.721z" fill="#FCCB5B"/><path d="M263.039 239.337c0 .198 3.83 13.481 3.925 14.147m-15.502.491c.311.143 1.696.54 1.863.595" stroke="#FF7F9A" stroke-width=".4" stroke-miterlimit="10"/><path d="M269.918 270.319l-.358-1.689a37.805 37.805 0 01-1.37-4.163c0-.579-.493-8.319-2.189-10.008a37.431 37.431 0 00-6.887-4.845c-.359 0-6.688 3.172-7.636 4.361-.191 0-.875.222-.875.452s3.296 6.106 3.909 6.662c.613.555 4.506 3.774 4.506 3.774.167.714 1.433 4.758 1.402 5.456m9.124-1.689a37.805 37.805 0 01-1.37-4.163l1.37 4.163zm-16.346-14.107c1.338.293 5.056-1.586 5.215-1.586.159 0 2.97 1.982 3.105 2.109a6.45 6.45 0 01.39 1.689c0 .127-3.431 2.633-3.981 2.633-.549 0-3.359-4.195-4.729-4.845z" stroke="#FF7F9A" stroke-width=".4" stroke-miterlimit="10"/><path d="M262.752 251.89c-.557-2.569-1.783-9.223-1.783-9.69 0-.468.255-3.323 1.712-3.323.215 0 .342.27.358.46.016.19 3.83 13.481 3.925 14.147.096.666.199 2.831.207 3.64" stroke="#FF7F9A" stroke-width=".4" stroke-miterlimit="10"/><path d="M263.986 242.755a5.147 5.147 0 012.652-2.617c.31 0 .398.476.398.714a84.349 84.349 0 00-.613 10.538" stroke="#FF7F9A" stroke-width=".4" stroke-miterlimit="10"/><path d="M266.463 247.457a4.204 4.204 0 012.309-1.404c.374 0 .629.397.47.635-.16.238-1.696 4.758-2.301 6.693" stroke="#FF7F9A" stroke-width=".4" stroke-miterlimit="10"/></svg>