<svg width="1892" height="591" fill="none" xmlns="http://www.w3.org/2000/svg"><path d="M1347.03 160.62c-1.27-.202-2.21-1.194-2.36-2.505-.16-1.311.5-2.677 1.66-3.448.66-.436 1.32-.796 1.91-1.114 1.75-.951 2.09-1.233 2.26-1.891.17-.659 0-1.021-1.15-2.431-1.29-1.589-3.24-3.99-2.23-7.946 1.02-3.955 4.01-5.574 5.99-6.646 1.75-.951 2.09-1.234 2.26-1.892.17-.658 0-1.022-1.15-2.435-1.29-1.589-3.24-3.991-2.23-7.946 1.02-3.955 4.01-5.576 5.99-6.648.4-.219.78-.426 1.12-.632 1.59-.985 3.52-.545 4.31.982.79 1.528.14 3.565-1.45 4.55-.51.317-1.01.582-1.48.841-1.76.951-2.09 1.233-2.26 1.895-.17.661 0 1.022 1.14 2.435 1.3 1.589 3.25 3.991 2.23 7.946-1.02 3.955-4.01 5.574-5.98 6.647-1.76.951-2.09 1.234-2.26 1.892-.17.657 0 1.021 1.15 2.431 1.29 1.588 3.24 3.99 2.22 7.944-1.02 3.955-4 5.575-5.98 6.648-.49.267-.96.52-1.34.771-.72.482-1.57.679-2.37.552z" fill="#07DFE0"/><path d="M1427.6 445.923c-.69-1.461-.51-3.052.47-4.086.99-1.035 2.59-1.33 4.13-.757l8.54 3.18 3.67-7.069c.82-1.563 2.75-2.179 4.64-1.477l8.55 3.18 3.67-7.069c.82-1.563 2.75-2.18 4.64-1.477l11.79 4.387c1.43.53 2.57 1.72 2.99 3.123.43 1.402.08 2.803-.92 3.676-1 .872-2.49 1.083-3.92.553l-8.54-3.178-3.68 7.07c-.82 1.563-2.75 2.18-4.64 1.477l-8.55-3.179-3.67 7.068c-.81 1.563-2.75 2.18-4.64 1.477l-11.79-4.389a5.019 5.019 0 01-2.74-2.51z" fill="#FF5858"/><path d="M1557.65 380.669c-8.24 0-15.66-4.418-18.81-11.195-3.15-6.776-1.41-14.576 4.41-19.763 5.83-5.186 14.58-6.738 22.19-3.931 7.6 2.807 12.56 9.42 12.56 16.755-.01 10.01-9.12 18.123-20.35 18.134zm0-28.385c-6.36 0-11.51 4.59-11.51 10.251 0 5.66 5.15 10.25 11.51 10.25 6.35 0 11.5-4.59 11.5-10.25-.01-5.659-5.15-10.245-11.5-10.251z" fill="#18DE74"/><path d="M1481.8 282.947c-1.88-.561-2.71-2.558-1.84-4.477l11.41-25.212c.87-1.933 3.13-3.06 5.04-2.516l24.93 7.098c1.4.398 2.28 1.611 2.22 3.072-.05 1.461-1.03 2.883-2.47 3.603l-36.34 18.115c-.96.478-2.02.592-2.95.317zm14.91-24.215l-6 13.256 19.11-9.524-13.11-3.732z" fill="#FD4EC7"/><path d="M384.146 430.564c-1.177 1.03-2.924 1.375-4.49.886-1.566-.488-2.672-1.724-2.842-3.174l-.94-8.051-9.185-.826c-2.032-.183-3.638-1.591-3.847-3.373l-.942-8.054-9.186-.827c-2.032-.182-3.638-1.591-3.847-3.373l-1.301-11.114c-.157-1.343.515-2.657 1.762-3.448 1.248-.79 2.882-.937 4.286-.385 1.405.552 2.367 1.719 2.525 3.062l.946 8.057 9.189.83c2.032.183 3.638 1.591 3.847 3.372l.942 8.054 9.185.826c2.032.183 3.639 1.591 3.847 3.373l1.297 11.111c.13 1.131-.327 2.253-1.246 3.054z" fill="#9C5CFF"/><path d="M437.738 294.097c-.77.774-1.842 1.262-2.982 1.356-1.14.094-2.254-.215-3.096-.857-4.559-3.478-11.635-2.897-15.803 1.298-4.168 4.194-3.851 10.413.708 13.89 1.754 1.338 1.876 3.729.273 5.343-1.604 1.613-4.325 1.836-6.078.499-8.067-6.152-8.628-17.155-1.253-24.576 7.374-7.42 19.892-8.448 27.959-2.296.842.642 1.344 1.566 1.395 2.568.051 1.002-.353 2-1.123 2.775z" fill="#FFCD45"/><path d="M337.174 173.57a2.797 2.797 0 01-1.932-1.463c-.394-.762-.456-1.696-.172-2.598l7.704-24.468c.591-1.877 2.491-3.103 4.244-2.738 1.753.365 2.695 2.182 2.104 4.059l-7.704 24.468a4.127 4.127 0 01-1.686 2.211c-.796.514-1.716.704-2.558.529z" fill="#3798FA"/></svg>